<svg width="518" height="803" viewBox="0 0 518 803" fill="none" xmlns="http://www.w3.org/2000/svg">
<g filter="url(#filter0_d_86_2)">
<path d="M235.688 24.3071L142.994 275.307C142.512 276.613 143.478 278 144.871 278H187.998C188.839 278 189.59 277.473 189.877 276.683L281.026 25.6827C281.499 24.3784 280.533 23 279.146 23H237.564C236.726 23 235.978 23.5216 235.688 24.3071Z" fill="#2C67FF" stroke="#2C67FF"/>
<path d="M283.312 24.3071L376.006 275.307C376.488 276.613 375.522 278 374.129 278H331.002C330.161 278 329.41 277.473 329.123 276.683L237.974 25.6827C237.501 24.3784 238.467 23 239.854 23H281.436C282.274 23 283.022 23.5216 283.312 24.3071Z" fill="#2C67FF" stroke="#2C67FF"/>
</g>
<g filter="url(#filter1_d_86_2)">
<rect x="22" y="781" width="555" height="474" rx="10" transform="rotate(-90 22 781)" fill="#2C67FF"/>
<rect x="23" y="780" width="553" height="472" rx="9" transform="rotate(-90 23 780)" stroke="#2C67FF" stroke-width="2"/>
</g>
<defs>
<filter id="filter0_d_86_2" x="120.367" y="0.5" width="278.266" height="300" filterUnits="userSpaceOnUse" color-interpolation-filters="sRGB">
<feFlood flood-opacity="0" result="BackgroundImageFix"/>
<feColorMatrix in="SourceAlpha" type="matrix" values="0 0 0 0 0 0 0 0 0 0 0 0 0 0 0 0 0 0 127 0" result="hardAlpha"/>
<feMorphology radius="2" operator="dilate" in="SourceAlpha" result="effect1_dropShadow_86_2"/>
<feOffset/>
<feGaussianBlur stdDeviation="10"/>
<feComposite in2="hardAlpha" operator="out"/>
<feColorMatrix type="matrix" values="0 0 0 0 0 0 0 0 0 0.170333 0 0 0 0 0.608333 0 0 0 1 0"/>
<feBlend mode="normal" in2="BackgroundImageFix" result="effect1_dropShadow_86_2"/>
<feBlend mode="normal" in="SourceGraphic" in2="effect1_dropShadow_86_2" result="shape"/>
</filter>
<filter id="filter1_d_86_2" x="0" y="204" width="518" height="599" filterUnits="userSpaceOnUse" color-interpolation-filters="sRGB">
<feFlood flood-opacity="0" result="BackgroundImageFix"/>
<feColorMatrix in="SourceAlpha" type="matrix" values="0 0 0 0 0 0 0 0 0 0 0 0 0 0 0 0 0 0 127 0" result="hardAlpha"/>
<feMorphology radius="2" operator="dilate" in="SourceAlpha" result="effect1_dropShadow_86_2"/>
<feOffset/>
<feGaussianBlur stdDeviation="10"/>
<feComposite in2="hardAlpha" operator="out"/>
<feColorMatrix type="matrix" values="0 0 0 0 0 0 0 0 0 0.170333 0 0 0 0 0.608333 0 0 0 1 0"/>
<feBlend mode="normal" in2="BackgroundImageFix" result="effect1_dropShadow_86_2"/>
<feBlend mode="normal" in="SourceGraphic" in2="effect1_dropShadow_86_2" result="shape"/>
</filter>
</defs>
</svg>
