<svg width="152" height="209" viewBox="0 0 152 209" fill="none" xmlns="http://www.w3.org/2000/svg">
<path fill-rule="evenodd" clip-rule="evenodd" d="M140.098 100.671C141.129 103.772 142.144 106.827 142.511 110.075L142.472 110.088C148.623 122.495 153.056 138.693 151.351 152.529C150.8 157.014 149.593 164.713 143.337 163.637C139.35 162.956 136.57 154.418 136.793 150.811C136.793 150.811 134.445 148.385 132.386 141.381C132.347 141.984 132.294 142.614 132.229 143.27L132.229 178.326C132.229 183.586 127.966 187.835 122.72 187.835L109.986 187.835C110.484 188.189 110.982 188.543 111.494 188.871C114.366 190.746 117.396 192.386 120.412 194.012C122.104 194.917 122.707 197.107 121.619 198.668C120.609 200.111 118.786 200.583 117.212 199.73C115.114 198.602 113.015 197.448 110.956 196.229C111.579 197.238 112.198 198.25 112.817 199.263L112.818 199.265L112.82 199.267C113.439 200.279 114.058 201.292 114.681 202.301C115.573 203.77 115.048 205.973 113.5 206.786C111.9 207.626 109.972 207.167 109.015 205.606C108.11 204.137 107.208 202.665 106.307 201.193C105.405 199.72 104.503 198.248 103.599 196.779C103.979 199.468 104.346 202.144 104.713 204.832C104.936 206.524 104.307 208.439 102.418 208.872C100.871 209.213 98.6279 208.399 98.3787 206.576C98.1666 205.025 97.9517 203.471 97.7366 201.915L97.7363 201.913L97.7355 201.907C97.4854 200.099 97.2351 198.288 96.9885 196.478C96.9544 196.194 96.9105 195.91 96.8653 195.618L96.8442 195.481L96.7918 195.507C96.7918 195.507 96.7262 183.979 75.86 183.415C54.9939 183.979 54.9283 195.507 54.9283 195.507L54.8758 195.481C54.8234 195.809 54.7709 196.15 54.7316 196.478C54.5192 198.031 54.304 199.588 54.0886 201.145L54.0884 201.147L54.0865 201.16L54.0862 201.163C53.8369 202.966 53.5872 204.771 53.3414 206.576C53.0791 208.399 50.8495 209.226 49.3019 208.872C47.4133 208.439 46.7707 206.524 47.0068 204.832C47.3871 202.144 47.7543 199.468 48.1215 196.779C47.2168 198.248 46.3153 199.72 45.4137 201.192C44.5119 202.664 43.6101 204.137 42.705 205.606C41.7476 207.167 39.8197 207.626 38.2196 206.786C36.672 205.973 36.1474 203.77 37.0393 202.301C37.6622 201.291 38.2819 200.278 38.9016 199.265C39.5213 198.252 40.141 197.238 40.764 196.229C38.7049 197.448 36.5933 198.602 34.508 199.73C32.9342 200.57 31.1112 200.111 30.1014 198.668C29.0128 197.107 29.6292 194.917 31.308 194.012C34.3375 192.386 37.354 190.746 40.2262 188.871C40.9607 188.386 41.682 187.887 42.3902 187.376L42.9804 186.943C42.9905 186.936 42.9997 186.931 43.0083 186.925L43.0086 186.925L43.0095 186.924C43.0338 186.909 43.053 186.897 43.0722 186.878L43.151 186.815C43.648 186.417 44.1333 186.029 44.6067 185.605L44.6067 185.579C43.6099 184.045 42.2066 182.313 41.2754 181.238L40.3443 180.163C23.793 168.766 20.0289 151.427 19.3338 141.368C17.2748 148.385 14.9271 150.798 14.9271 150.798C15.1501 154.404 12.3697 162.942 8.3827 163.624C2.1399 164.7 0.920205 157.001 0.369363 152.516C-1.33561 138.693 3.09732 122.482 9.26142 110.088C9.62857 106.848 10.6445 103.788 11.6753 100.683L11.6754 100.683L11.6755 100.683C12.1175 99.3511 12.5623 98.0113 12.9599 96.6454C13.7048 94.0851 14.2478 91.7437 14.7678 89.5013C16.0699 83.8868 17.2282 78.8921 21.0519 72.6316C20.5276 71.5829 20.0294 70.5211 19.5312 69.4593L19.5306 69.4578C17.4321 64.9331 22.311 60.8805 25.7471 62.2313C26.5034 58.4667 27.0452 54.8581 27.5693 51.3671C29.4899 38.5737 31.1734 27.3597 42.3115 15.83C43.9247 14.1513 45.4592 12.8529 47.2428 11.384C50.0626 9.0495 52.6725 7.04289 55.8726 5.21989C61.8006 1.83618 67.5713 -0.0130491 74.0764 6.60506e-05L77.6699 6.60506e-05C84.1881 -0.0130491 89.9588 1.83618 95.8868 5.21989C99.0738 7.04289 101.697 9.0495 104.517 11.384C106.3 12.866 107.835 14.1513 109.448 15.83C120.591 27.3577 122.275 38.57 124.197 51.3621C124.963 56.4565 125.766 61.8015 127.219 67.5167C133.978 76.3763 135.38 82.4403 137.011 89.4936C137.529 91.7331 138.07 94.0723 138.813 96.6323C139.211 97.9993 139.656 99.3391 140.098 100.671ZM107.192 36.6306C107.192 32.1321 101.933 28.4992 95.454 28.4992C88.9752 28.4992 83.716 32.1321 83.716 36.6306C83.716 41.1291 88.9752 44.762 95.454 44.762C101.933 44.762 107.192 41.1291 107.192 36.6306ZM90.3391 47.7391L89.1981 47.2145L89.1719 47.2014C81.0667 43.4505 71.6107 44.08 64.0695 48.8801C60.9612 50.8605 61.2629 55.4902 64.5941 57.0509L65.4597 57.4574C72.5944 60.8018 80.8438 60.7625 87.9391 57.3656L90.3916 56.1984C93.9589 54.4803 93.9327 49.4048 90.3391 47.7391ZM67.6631 36.6306C67.6631 32.1321 62.4039 28.4992 55.925 28.4992C49.4462 28.4992 44.187 32.1321 44.187 36.6306C44.187 41.1291 49.4462 44.762 55.925 44.762C62.4039 44.762 67.6631 41.1291 67.6631 36.6306ZM95.1393 178.192L95.1393 147.86C95.1393 142.902 92.3851 138.338 87.9653 136.096C76.0699 130.076 64.5679 123.204 54.3381 114.81C44.8428 107.006 36.5802 97.7996 29.7472 87.6222C29.2882 89.2879 28.8948 91.0322 28.4489 93.0388C27.9505 95.347 27.3603 97.9832 26.5603 100.895C26.1144 102.508 25.6553 103.99 25.1963 105.433L25.1594 105.55C24.3618 108.097 23.6718 110.301 23.4651 112.161L23.2159 114.443C23.2159 114.443 22.3897 118.495 22.6126 124.476C22.5208 125.997 22.6651 127.505 22.9798 128.948C23.2815 131.466 23.793 134.181 24.6061 136.988C25.8389 141.224 27.7669 145.67 30.7309 149.932C33.9179 154.522 36.8819 159.283 39.0852 164.451C40.6984 168.228 43.1509 172.516 46.9149 176.858C49.6036 179.953 54.2201 180.307 57.3546 177.697C60.7645 174.864 66.5483 171.782 75.8863 171.074C85.2242 171.782 91.008 174.864 94.4179 177.697C94.6236 177.868 94.8492 178.01 95.0687 178.148L95.1393 178.192ZM127.219 136.791C128.006 134.063 128.491 131.414 128.793 128.961L128.806 128.935C129.134 127.479 129.265 125.984 129.173 124.463C129.396 118.482 128.57 114.43 128.57 114.43L128.321 112.148C128.124 110.272 127.416 108.016 126.589 105.419C126.512 105.17 126.434 104.92 126.356 104.667C125.981 103.461 125.594 102.216 125.225 100.882C124.43 97.9863 123.855 95.3762 123.345 93.0644L123.345 93.0641L123.345 93.064L123.337 93.0257C122.327 88.4485 121.592 85.1566 119.547 81.2745C118.602 78.8876 117.317 76.094 115.612 73.2743C112.491 68.0938 106.287 65.9692 100.831 68.1332C100.503 68.2643 100.123 68.4086 99.7689 68.5397L99.6634 68.5717C99.3944 68.6532 99.1175 68.737 98.8509 68.8414C98.0732 69.1438 97.3045 69.4017 96.5373 69.6592C96.3729 69.7143 96.2085 69.7695 96.0442 69.825C90.6277 71.5431 83.716 72.9858 75.8994 73.0251C68.0696 72.9726 61.1711 71.53 55.7545 69.825C55.6893 69.803 55.6241 69.781 55.5589 69.7591C55.4597 69.7257 55.3605 69.6924 55.2613 69.6591L55.2608 69.6589C54.4938 69.4016 53.7253 69.1437 52.9479 68.8414C52.6813 68.7371 52.4045 68.6532 52.1355 68.5718L52.1353 68.5717L52.0298 68.5397C51.7712 68.4439 51.5055 68.3411 51.2482 68.2415C51.1532 68.2048 51.0594 68.1685 50.9675 68.1332C45.5116 65.9823 39.2951 68.1069 36.1868 73.2743C35.5179 74.3759 34.9408 75.4645 34.4031 76.5268C41.5115 88.396 50.5216 99.0062 61.3154 107.846C75.6895 119.61 93.0409 128.135 110.038 135.637C111.704 136.371 113.5 136.738 115.323 136.738L126.747 136.738C126.841 136.738 126.936 136.753 127.03 136.767C127.093 136.776 127.156 136.786 127.219 136.791ZM77.1968 57.3907L68.1998 53.3382C67.5441 53.0496 67.2424 52.2627 67.5441 51.607C67.8326 50.9512 68.6195 50.6496 69.2753 50.9512L77.7214 54.7546L85.6429 50.9643C86.2856 50.6496 87.0725 50.925 87.3872 51.5807C87.702 52.2365 87.4266 53.0103 86.7708 53.3251L78.2985 57.3776C78.1149 57.4694 77.9312 57.5088 77.7345 57.5088C77.5509 57.5088 77.3673 57.4694 77.1968 57.3907ZM56.095 40.8668C58.2722 40.8668 60.0427 39.0963 60.0427 36.9192C60.0427 34.7421 58.2722 32.9715 56.095 32.9715C53.9179 32.9715 52.1474 34.7421 52.1474 36.9192C52.1474 39.0963 53.9179 40.8668 56.095 40.8668ZM99.592 37.602C99.592 39.7822 97.8246 41.5497 95.6444 41.5497C93.4641 41.5497 91.6967 39.7822 91.6967 37.602C91.6967 35.4218 93.4641 33.6543 95.6444 33.6543C97.8246 33.6543 99.592 35.4218 99.592 37.602Z" fill="black"/>
</svg>
